<svg width="1024" height="1024" viewBox="0 0 1024 1024" fill="none" xmlns="http://www.w3.org/2000/svg">
<rect width="1024" height="1024" fill="#AAF0D1"/>
<path d="M796.601 768.488L713.855 665.055C711.455 661.994 708.241 659.673 704.583 658.355C700.924 657.038 696.968 656.779 693.168 657.608L511.54 698.567L329.912 657.194C326.112 656.365 322.156 656.624 318.497 657.942C314.838 659.259 311.625 661.581 309.225 664.641L226.479 768.074C224.078 771.101 222.573 774.741 222.134 778.58C221.695 782.419 222.34 786.304 223.996 789.795C225.613 793.392 228.225 796.453 231.524 798.615C234.822 800.778 238.67 801.952 242.614 802H780.465C784.364 801.989 788.181 800.876 791.475 798.79C794.769 796.704 797.407 793.729 799.083 790.208C800.739 786.717 801.385 782.832 800.946 778.993C800.507 775.154 799.002 771.515 796.601 768.488Z" fill="#2D3436"/>
<path d="M232.685 343.999L508.851 421.781L793.912 341.724C796.157 339.804 797.964 337.426 799.213 334.75C800.462 332.074 801.123 329.162 801.153 326.209C801.349 321.619 800.012 317.095 797.352 313.35C794.693 309.604 790.863 306.85 786.465 305.522L517.54 222.776C513.607 221.741 509.474 221.741 505.541 222.776L236.616 305.522C232.797 306.751 229.419 309.064 226.891 312.179C224.363 315.294 222.796 319.076 222.379 323.066C221.963 327.056 222.715 331.08 224.545 334.65C226.375 338.22 229.203 341.18 232.685 343.172V343.999Z" fill="#2D3436"/>
<path d="M514.435 463.154C510.793 464.259 506.906 464.259 503.264 463.154L356.39 421.781V518.181C356.444 554.21 370.781 588.747 396.257 614.224C421.734 639.7 456.271 654.037 492.3 654.091H530.778C566.807 654.037 601.344 639.7 626.821 614.224C652.297 588.747 666.634 554.21 666.688 518.181V420.333L514.435 463.154Z" fill="#2D3436"/>
</svg>
