<svg xmlns="http://www.w3.org/2000/svg" version="1.1" xmlns:xlink="http://www.w3.org/1999/xlink" width="1000" height="1000"><g clip-path="url(#SvgjsClipPath1133)"><rect width="1000" height="1000" fill="#aaf0d1"></rect><g transform="matrix(2.572347266881029,0,0,2.572347266881029,100,150.16077170418004)"><svg xmlns="http://www.w3.org/2000/svg" version="1.1" xmlns:xlink="http://www.w3.org/1999/xlink" width="311" height="272"><svg width="311" height="272" viewBox="0 0 311 272" fill="none" xmlns="http://www.w3.org/2000/svg">
<path d="M311 102.206C311.007 97.9721 309.895 93.8116 307.779 90.1479C305.662 86.4843 302.616 83.4481 298.95 81.3482L167.959 3.37338C164.184 1.16413 159.891 0 155.521 0C151.15 0 146.858 1.16413 143.082 3.37338L11.8967 81.3482C8.27158 83.5057 5.2685 86.5722 3.18266 90.2464C1.09682 93.9205 0 98.0758 0 102.304C0 106.532 1.09682 110.687 3.18266 114.361C5.2685 118.036 8.27158 121.102 11.8967 123.26L49.2118 145.093V199.87C49.2342 204.151 50.3544 208.354 52.4647 212.075C54.575 215.797 57.6043 218.911 61.2614 221.118L143.86 268.878C147.548 270.926 151.694 272 155.909 272C160.125 272 164.271 270.926 167.959 268.878L250.557 221.118C254.214 218.911 257.244 215.797 259.354 212.075C261.464 208.354 262.585 204.151 262.607 199.87V144.508L286.706 130.277V183.3H311V102.206ZM238.508 199.675L155.521 247.629L73.5054 199.87V159.518L143.082 201.039C146.87 203.211 151.158 204.353 155.521 204.353C159.884 204.353 164.171 203.211 167.959 201.039L238.313 158.933L238.508 199.675ZM155.521 179.986L24.3351 102.011L155.521 23.8418L286.706 101.817L155.521 179.986Z" fill="#121212"></path>
</svg></svg></g></g><defs><clipPath id="SvgjsClipPath1133"><rect width="1000" height="1000" x="0" y="0" rx="200" ry="200"></rect></clipPath></defs></svg>