<svg width="1024" height="1024" viewBox="0 0 1024 1024" fill="none" xmlns="http://www.w3.org/2000/svg">
<rect width="1024" height="1024" rx="100" fill="#AAF0D1"/>
<path d="M870.223 833.936L766.362 704.11C763.351 700.269 759.317 697.355 754.724 695.701C750.132 694.048 745.166 693.723 740.397 694.763L512.423 746.174L284.448 694.243C279.679 693.203 274.713 693.529 270.121 695.182C265.528 696.835 261.494 699.75 258.483 703.591L154.622 833.417C151.608 837.217 149.719 841.785 149.168 846.604C148.617 851.422 149.427 856.299 151.506 860.681C153.535 865.196 156.813 869.038 160.954 871.752C165.094 874.466 169.924 875.94 174.875 876H849.971C854.865 875.986 859.655 874.589 863.79 871.971C867.924 869.352 871.235 865.618 873.339 861.2C875.418 856.818 876.228 851.942 875.677 847.123C875.126 842.304 873.237 837.736 870.223 833.936Z" fill="#2D3436"/>
<path d="M162.412 301.13L509.048 398.759L866.849 298.274C869.666 295.865 871.934 292.88 873.502 289.521C875.069 286.162 875.9 282.506 875.937 278.8C876.183 273.039 874.505 267.361 871.167 262.659C867.829 257.958 863.021 254.502 857.501 252.835L519.953 148.974C515.017 147.675 509.83 147.675 504.894 148.974L167.346 252.835C162.553 254.377 158.312 257.28 155.139 261.19C151.967 265.1 149.999 269.847 149.476 274.855C148.954 279.863 149.898 284.915 152.195 289.395C154.491 293.876 158.041 297.592 162.412 300.091V301.13Z" fill="#2D3436"/>
<path d="M516.056 450.69C511.486 452.077 506.606 452.077 502.035 450.69L317.682 398.76V519.758C317.751 564.98 335.746 608.331 367.723 640.308C399.7 672.286 443.051 690.281 488.274 690.349H536.569C581.792 690.281 625.142 672.286 657.12 640.308C689.097 608.331 707.092 564.98 707.161 519.758V396.942L516.056 450.69Z" fill="#2D3436"/>
</svg>
