<svg width="853" height="193" viewBox="0 0 853 193" fill="none" xmlns="http://www.w3.org/2000/svg">
<path d="M531.006 59.6H608.206V79.8H531.006V59.6ZM556.606 32.4H582.606V159H556.606V32.4Z" fill="#121212"/>
<path d="M514.291 16V38.8H484.091V16H514.291ZM486.091 59.6H512.091V159H486.091V59.6Z" fill="#121212"/>
<path d="M345.819 59.6H371.819V159H345.819V59.6ZM418.019 57.4C424.152 57.4 429.819 58.2 435.019 59.8C440.219 61.4 444.752 63.8667 448.619 67.2C452.485 70.5334 455.485 74.8 457.619 80C459.752 85.0667 460.819 91.1334 460.819 98.2V159H434.819V102.8C434.819 94.4 432.752 88.2667 428.619 84.4C424.619 80.4 418.019 78.4 408.819 78.4C401.885 78.4 395.619 79.7334 390.019 82.4C384.419 85.0667 379.885 88.4667 376.419 92.6C372.952 96.6 370.952 100.8 370.419 105.2L370.219 95C370.885 90.3334 372.419 85.8 374.819 81.4C377.219 77 380.419 73 384.419 69.4C388.552 65.6667 393.419 62.7334 399.019 60.6C404.619 58.4667 410.952 57.4 418.019 57.4Z" fill="#121212"/>
<path d="M265.545 59.6H291.545V159H265.545V59.6ZM329.745 81C322.279 81 315.812 82.4667 310.345 85.4C304.879 88.2 300.479 91.6667 297.145 95.8C293.812 99.9334 291.479 103.933 290.145 107.8L289.945 96.8C290.079 95.2 290.612 92.8667 291.545 89.8C292.479 86.6 293.879 83.2 295.745 79.6C297.612 75.8667 300.079 72.3334 303.145 69C306.212 65.5334 309.945 62.7334 314.345 60.6C318.745 58.4667 323.879 57.4 329.745 57.4V81Z" fill="#121212"/>
<path d="M220.598 126H245.798C244.732 132.8 241.865 138.867 237.198 144.2C232.665 149.533 226.465 153.733 218.598 156.8C210.732 159.867 201.132 161.4 189.798 161.4C177.132 161.4 165.932 159.4 156.198 155.4C146.465 151.267 138.865 145.333 133.398 137.6C127.932 129.867 125.198 120.533 125.198 109.6C125.198 98.6667 127.865 89.3334 133.198 81.6C138.532 73.7334 145.932 67.7334 155.398 63.6C164.998 59.4667 176.198 57.4 188.998 57.4C202.065 57.4 212.932 59.4667 221.598 63.6C230.265 67.7334 236.665 74 240.798 82.4C245.065 90.6667 246.865 101.267 246.198 114.2H151.398C152.065 119.267 153.932 123.867 156.998 128C160.198 132.133 164.465 135.4 169.798 137.8C175.265 140.2 181.732 141.4 189.198 141.4C197.465 141.4 204.332 140 209.798 137.2C215.398 134.267 218.998 130.533 220.598 126ZM187.798 77.2C178.198 77.2 170.398 79.3334 164.398 83.6C158.398 87.7334 154.532 92.8667 152.798 99H220.398C219.732 92.3334 216.532 87.0667 210.798 83.2C205.198 79.2 197.532 77.2 187.798 77.2Z" fill="#121212"/>
<path d="M26.6 29.6V136.8H112.6V159H0V29.6H26.6Z" fill="#121212"/>
<path d="M853 72.5215C853.005 69.517 852.215 66.5649 850.711 63.9653C849.207 61.3657 847.042 59.2113 844.437 57.7213L751.354 2.39361C748.671 0.826017 745.621 0 742.515 0C739.409 0 736.359 0.826017 733.676 2.39361L640.454 57.7213C637.878 59.2522 635.744 61.4281 634.262 64.0351C632.779 66.6421 632 69.5906 632 72.5906C632 75.5907 632.779 78.5391 634.262 81.1461C635.744 83.7531 637.878 85.929 640.454 87.4599L666.97 102.952V141.819C666.986 144.857 667.782 147.839 669.282 150.48C670.782 153.12 672.934 155.33 675.533 156.896L734.228 190.784C736.849 192.238 739.795 193 742.791 193C745.786 193 748.733 192.238 751.354 190.784L810.049 156.896C812.648 155.33 814.8 153.12 816.3 150.48C817.799 147.839 818.595 144.857 818.611 141.819V102.537L835.737 92.4394V130.062H853V72.5215ZM801.486 141.681L742.515 175.708L684.234 141.819V113.187L733.676 142.649C736.368 144.19 739.414 145 742.515 145C745.615 145 748.662 144.19 751.354 142.649L801.348 112.772L801.486 141.681ZM742.515 127.711L649.293 72.3831L742.515 16.9171L835.737 72.2448L742.515 127.711Z" fill="#121212"/>
</svg>
