<svg width="969" height="221" viewBox="0 0 969 221" fill="none" xmlns="http://www.w3.org/2000/svg">
<path d="M203.98 170C198.329 170 193.715 168.27 190.14 164.81C186.68 161.235 184.95 156.506 184.95 150.624V102.184H163.498V84.192H184.95V57.55H206.748V84.192H230.276V102.184H206.748V146.818C206.748 150.278 208.363 152.008 211.592 152.008H228.2V170H203.98ZM286.064 172.422C277.53 172.422 269.975 170.634 263.401 167.059C256.943 163.368 251.868 158.236 248.177 151.662C244.602 144.973 242.814 137.13 242.814 128.134V126.058C242.814 117.062 244.602 109.277 248.177 102.703C251.753 96.0137 256.77 90.8813 263.228 87.306C269.687 83.6153 277.184 81.77 285.718 81.77C294.138 81.77 301.461 83.673 307.689 87.479C313.917 91.1697 318.761 96.3597 322.221 103.049C325.681 109.623 327.411 117.293 327.411 126.058V133.497H264.958C265.189 139.379 267.38 144.165 271.532 147.856C275.684 151.547 280.759 153.392 286.756 153.392C292.869 153.392 297.367 152.066 300.25 149.413C303.134 146.76 305.325 143.819 306.824 140.59L324.643 149.932C323.029 152.931 320.664 156.218 317.55 159.793C314.552 163.253 310.515 166.252 305.44 168.789C300.366 171.211 293.907 172.422 286.064 172.422ZM265.131 117.235H305.267C304.806 112.276 302.788 108.297 299.212 105.298C295.752 102.299 291.197 100.8 285.545 100.8C279.663 100.8 274.992 102.299 271.532 105.298C268.072 108.297 265.939 112.276 265.131 117.235ZM373.455 172.422C367.342 172.422 361.864 171.384 357.02 169.308C352.176 167.117 348.312 164.003 345.429 159.966C342.661 155.814 341.277 150.797 341.277 144.915C341.277 139.033 342.661 134.131 345.429 130.21C348.312 126.173 352.234 123.175 357.193 121.214C362.268 119.138 368.034 118.1 374.493 118.1H398.021V113.256C398.021 109.219 396.752 105.932 394.215 103.395C391.678 100.742 387.641 99.416 382.105 99.416C376.684 99.416 372.648 100.685 369.995 103.222C367.342 105.644 365.612 108.816 364.805 112.737L344.737 105.99C346.121 101.607 348.312 97.6283 351.311 94.053C354.425 90.3623 358.519 87.4213 363.594 85.23C368.784 82.9233 375.07 81.77 382.451 81.77C393.754 81.77 402.692 84.5957 409.266 90.247C415.84 95.8983 419.127 104.087 419.127 114.813V146.818C419.127 150.278 420.742 152.008 423.971 152.008H430.891V170H416.359C412.092 170 408.574 168.962 405.806 166.886C403.038 164.81 401.654 162.042 401.654 158.582V158.409H398.367C397.906 159.793 396.868 161.638 395.253 163.945C393.638 166.136 391.101 168.097 387.641 169.827C384.181 171.557 379.452 172.422 373.455 172.422ZM377.261 154.776C383.374 154.776 388.333 153.104 392.139 149.759C396.06 146.299 398.021 141.743 398.021 136.092V134.362H376.05C372.013 134.362 368.842 135.227 366.535 136.957C364.228 138.687 363.075 141.109 363.075 144.223C363.075 147.337 364.286 149.874 366.708 151.835C369.13 153.796 372.648 154.776 377.261 154.776ZM485.448 172.422C477.144 172.422 469.59 170.692 462.785 167.232C456.096 163.772 450.791 158.755 446.869 152.181C442.948 145.607 440.987 137.649 440.987 128.307V125.885C440.987 116.543 442.948 108.585 446.869 102.011C450.791 95.437 456.096 90.42 462.785 86.96C469.59 83.5 477.144 81.77 485.448 81.77C493.637 81.77 500.672 83.2117 506.554 86.095C512.436 88.9783 517.165 92.9573 520.74 98.032C524.431 102.991 526.853 108.643 528.006 114.986L506.9 119.484C506.439 116.024 505.401 112.91 503.786 110.142C502.172 107.374 499.865 105.183 496.866 103.568C493.983 101.953 490.35 101.146 485.967 101.146C481.585 101.146 477.606 102.126 474.03 104.087C470.57 105.932 467.802 108.758 465.726 112.564C463.766 116.255 462.785 120.81 462.785 126.231V127.961C462.785 133.382 463.766 137.995 465.726 141.801C467.802 145.492 470.57 148.317 474.03 150.278C477.606 152.123 481.585 153.046 485.967 153.046C492.541 153.046 497.501 151.374 500.845 148.029C504.305 144.569 506.497 140.071 507.419 134.535L528.525 139.552C527.026 145.665 524.431 151.258 520.74 156.333C517.165 161.292 512.436 165.214 506.554 168.097C500.672 170.98 493.637 172.422 485.448 172.422ZM546.506 170V48.9H568.304V94.745H571.418C572.341 92.8997 573.783 91.0543 575.743 89.209C577.704 87.3637 580.299 85.8643 583.528 84.711C586.873 83.4423 591.083 82.808 596.157 82.808C602.847 82.808 608.671 84.365 613.63 87.479C618.705 90.4777 622.626 94.6873 625.394 100.108C628.162 105.413 629.546 111.641 629.546 118.792V170H607.748V120.522C607.748 114.063 606.134 109.219 602.904 105.99C599.79 102.761 595.292 101.146 589.41 101.146C582.721 101.146 577.531 103.395 573.84 107.893C570.15 112.276 568.304 118.446 568.304 126.404V170H546.506ZM660.031 170L647.921 84.192H669.546L677.158 155.295H680.272L691.344 84.192H726.29L737.362 155.295H740.476L748.088 84.192H769.713L757.603 170H721.446L710.374 98.897H707.26L696.188 170H660.031ZM827.534 172.422C819 172.422 811.445 170.634 804.871 167.059C798.413 163.368 793.338 158.236 789.647 151.662C786.072 144.973 784.284 137.13 784.284 128.134V126.058C784.284 117.062 786.072 109.277 789.647 102.703C793.223 96.0137 798.24 90.8813 804.698 87.306C811.157 83.6153 818.654 81.77 827.188 81.77C835.608 81.77 842.931 83.673 849.159 87.479C855.387 91.1697 860.231 96.3597 863.691 103.049C867.151 109.623 868.881 117.293 868.881 126.058V133.497H806.428C806.659 139.379 808.85 144.165 813.002 147.856C817.154 151.547 822.229 153.392 828.226 153.392C834.339 153.392 838.837 152.066 841.72 149.413C844.604 146.76 846.795 143.819 848.294 140.59L866.113 149.932C864.499 152.931 862.134 156.218 859.02 159.793C856.022 163.253 851.985 166.252 846.91 168.789C841.836 171.211 835.377 172.422 827.534 172.422ZM806.601 117.235H846.737C846.276 112.276 844.258 108.297 840.682 105.298C837.222 102.299 832.667 100.8 827.015 100.8C821.133 100.8 816.462 102.299 813.002 105.298C809.542 108.297 807.409 112.276 806.601 117.235ZM888.283 170V48.9H910.081V170H888.283ZM934.236 170V48.9H956.034V170H934.236Z" fill="#2D3436"/>
<path d="M143.65 174.622L122.964 148.764C122.364 147.999 121.56 147.418 120.646 147.089C119.731 146.76 118.742 146.695 117.792 146.902L72.385 157.142L26.9779 146.798C26.028 146.591 25.039 146.656 24.1243 146.985C23.2095 147.315 22.4062 147.895 21.8063 148.66L1.11969 174.519C0.519428 175.275 0.143135 176.185 0.0334496 177.145C-0.0762355 178.105 0.0850721 179.076 0.499097 179.949C0.903312 180.848 1.55623 181.613 2.38089 182.154C3.20556 182.694 4.16758 182.988 5.15358 183H139.616C140.591 182.997 141.545 182.719 142.369 182.197C143.192 181.676 143.852 180.932 144.271 180.052C144.685 179.179 144.846 178.208 144.736 177.248C144.627 176.289 144.25 175.379 143.65 174.622Z" fill="#2D3436"/>
<path d="M2.67136 68.4998L71.7128 87.9452L142.978 67.9309C143.539 67.4511 143.991 66.8566 144.303 66.1876C144.615 65.5186 144.781 64.7904 144.788 64.0522C144.837 62.9048 144.503 61.7738 143.838 60.8374C143.173 59.901 142.216 59.2125 141.116 58.8805L73.8849 38.194C72.9018 37.9353 71.8685 37.9353 70.8853 38.194L3.65397 58.8805C2.69936 59.1878 1.85467 59.766 1.22276 60.5447C0.590853 61.3234 0.198978 62.269 0.094851 63.2665C-0.00927571 64.2639 0.178839 65.2701 0.636289 66.1625C1.09374 67.0549 1.80079 67.7951 2.67136 68.2929V68.4998Z" fill="#2D3436"/>
<path d="M73.1088 98.2885C72.1984 98.5647 71.2265 98.5647 70.3161 98.2885L33.5974 87.9452V112.045C33.6111 121.052 37.1953 129.687 43.5644 136.056C49.9335 142.425 58.5679 146.009 67.5751 146.023H77.1944C86.2016 146.009 94.836 142.425 101.205 136.056C107.574 129.687 111.158 121.052 111.172 112.045V87.5832L73.1088 98.2885Z" fill="#2D3436"/>
</svg>
