<svg width="893" height="272" viewBox="0 0 893 272" fill="none" xmlns="http://www.w3.org/2000/svg">
<path d="M815.406 139.6H892.606V159.8H815.406V139.6ZM841.006 112.4H867.006V239H841.006V112.4Z" fill="#121212"/>
<path d="M798.691 96V118.8H768.491V96H798.691ZM770.491 139.6H796.491V239H770.491V139.6Z" fill="#121212"/>
<path d="M630.219 139.6H656.219V239H630.219V139.6ZM702.419 137.4C708.552 137.4 714.219 138.2 719.419 139.8C724.619 141.4 729.152 143.867 733.019 147.2C736.885 150.533 739.885 154.8 742.019 160C744.152 165.067 745.219 171.133 745.219 178.2V239H719.219V182.8C719.219 174.4 717.152 168.267 713.019 164.4C709.019 160.4 702.419 158.4 693.219 158.4C686.285 158.4 680.019 159.733 674.419 162.4C668.819 165.067 664.285 168.467 660.819 172.6C657.352 176.6 655.352 180.8 654.819 185.2L654.619 175C655.285 170.333 656.819 165.8 659.219 161.4C661.619 157 664.819 153 668.819 149.4C672.952 145.667 677.819 142.733 683.419 140.6C689.019 138.467 695.352 137.4 702.419 137.4Z" fill="#121212"/>
<path d="M549.945 139.6H575.945V239H549.945V139.6ZM614.145 161C606.679 161 600.212 162.467 594.745 165.4C589.279 168.2 584.879 171.667 581.545 175.8C578.212 179.933 575.879 183.933 574.545 187.8L574.345 176.8C574.479 175.2 575.012 172.867 575.945 169.8C576.879 166.6 578.279 163.2 580.145 159.6C582.012 155.867 584.479 152.333 587.545 149C590.612 145.533 594.345 142.733 598.745 140.6C603.145 138.467 608.279 137.4 614.145 137.4V161Z" fill="#121212"/>
<path d="M504.998 206H530.198C529.132 212.8 526.265 218.867 521.598 224.2C517.065 229.533 510.865 233.733 502.998 236.8C495.132 239.867 485.532 241.4 474.198 241.4C461.532 241.4 450.332 239.4 440.598 235.4C430.865 231.267 423.265 225.333 417.798 217.6C412.332 209.867 409.598 200.533 409.598 189.6C409.598 178.667 412.265 169.333 417.598 161.6C422.932 153.733 430.332 147.733 439.798 143.6C449.398 139.467 460.598 137.4 473.398 137.4C486.465 137.4 497.332 139.467 505.998 143.6C514.665 147.733 521.065 154 525.198 162.4C529.465 170.667 531.265 181.267 530.598 194.2H435.798C436.465 199.267 438.332 203.867 441.398 208C444.598 212.133 448.865 215.4 454.198 217.8C459.665 220.2 466.132 221.4 473.598 221.4C481.865 221.4 488.732 220 494.198 217.2C499.798 214.267 503.398 210.533 504.998 206ZM472.198 157.2C462.598 157.2 454.798 159.333 448.798 163.6C442.798 167.733 438.932 172.867 437.198 179H504.798C504.132 172.333 500.932 167.067 495.198 163.2C489.598 159.2 481.932 157.2 472.198 157.2Z" fill="#121212"/>
<path d="M311 109.6V216.8H397V239H284.4V109.6H311Z" fill="#121212"/>
<path d="M311 102.206C311.007 97.9721 309.895 93.8116 307.779 90.1479C305.662 86.4843 302.616 83.4481 298.95 81.3482L167.959 3.37338C164.184 1.16413 159.891 0 155.521 0C151.15 0 146.858 1.16413 143.082 3.37338L11.8967 81.3482C8.27158 83.5057 5.2685 86.5722 3.18266 90.2464C1.09682 93.9205 0 98.0758 0 102.304C0 106.532 1.09682 110.687 3.18266 114.361C5.2685 118.036 8.27158 121.102 11.8967 123.26L49.2118 145.093V199.87C49.2342 204.151 50.3544 208.354 52.4647 212.075C54.575 215.797 57.6043 218.911 61.2614 221.118L143.86 268.878C147.548 270.926 151.694 272 155.909 272C160.125 272 164.271 270.926 167.959 268.878L250.557 221.118C254.214 218.911 257.244 215.797 259.354 212.075C261.464 208.354 262.585 204.151 262.607 199.87V144.508L286.706 130.277V183.3H311V102.206ZM238.508 199.675L155.521 247.629L73.5054 199.87V159.518L143.082 201.039C146.87 203.211 151.158 204.353 155.521 204.353C159.884 204.353 164.171 203.211 167.959 201.039L238.313 158.933L238.508 199.675ZM155.521 179.986L24.3351 102.011L155.521 23.8418L286.706 101.817L155.521 179.986Z" fill="#121212"/>
</svg>
